:SAMPLES-PER-SECOND 30
:FULLY-SPECIFIED
:DEGREES
62
root  66.2634 37.544 11.9401 174.168 46.7136 175.026
RightUpLeg  3.84422 -21.1619 -9.68518
RightLeg  49.3375 5.72318 6.84014
RightFoot  -2.79493 -1.47406 20.5481
RightToes  -2.9104e-010 0 -3.6325e-017
Spine  1.76982 3.19289 1.16994
Spine1  6.52024 5.15308 -9.5038
HEad  -57.0334 31.2935 -39.5981
LeftShoulder1  -0.853293 5.60906 -34.3561
LeftArm  -3.67594 17.8558 -33.5678
LeftForeArm  21.1747 -17.1122 -4.87849
LeftHand  -0.0288781 8.06678 0.646242
RightShoulder  -1.36717 -6.99234 32.6717
RightArm  13.3411 -4.32363 45.2002
RightForeArm  25.0317 6.02083 6.79413
RightHand  0.097052 1.62238 1.48073
LeftUpLeg  -15.5066 11.0718 -12.9308
LeftLeg  21.0089 31.1766 7.37908
LeftFoot  -7.37732 -0.529658 16.4455
LeftToes  -3.37426e-010 -1.91496e-010 5.23909e-011
63
root  67.038 37.5075 11.5493 173.356 42.7384 174.09
RightUpLeg  -2.02959 -18.0288 -10.1242
RightLeg  59.0171 5.73203 9.65654
RightFoot  5.78728 -2.28278 15.0574
RightToes  -2.9104e-010 0 -3.6325e-017
Spine  2.73812 3.26105 -0.405418
Spine1  6.2789 4.97909 -9.25195
HEad  -55.7522 31.7693 -40.6045
LeftShoulder1  -0.933836 5.82563 -34.017
LeftArm  -1.62387 18.264 -35.137
LeftForeArm  19.0873 -18.6609 -4.6847
LeftHand  -0.0201337 8.2947 0.903328
RightShoulder  -1.39652 -7.02948 33.0846
RightArm  14.4561 -5.46407 44.5016
RightForeArm  23.1503 7.59172 7.10842
RightHand  0.0233645 2.17308 0.164886
LeftUpLeg  -14.0219 9.34571 -13.8623
LeftLeg  22.0298 29.0425 7.67622
LeftFoot  -8.65275 -0.309587 15.3222
LeftToes  -3.37426e-010 -1.91496e-010 5.23909e-011
64
root  67.7683 37.5186 11.1338 173.609 38.042 174.184
RightUpLeg  -6.70993 -15.2566 -10.2217
RightLeg  64.9468 4.18872 9.15277
RightFoot  2.8334 -1.95799 15.8067
RightToes  -2.9104e-010 0 -3.6325e-017
Spine  2.97247 3.06062 -1.22437
Spine1  6.47539 4.45028 -8.69635
HEad  -53.6381 31.9472 -40.9205
LeftShoulder1  -1.04255 6.05363 -34.6901
LeftArm  1.13906 18.1936 -35.552
LeftForeArm  18.6898 -20.1296 -4.45495
LeftHand  -0.024968 6.62927 0.946603
RightShoulder  -1.44862 -7.13399 33.3823
RightArm  15.9568 -6.33109 43.5389
RightForeArm  21.7897 9.7843 7.07052
RightHand  0.0176083 2.29411 0.0934752
LeftUpLeg  -12.5987 7.54286 -14.1911
LeftLeg  22.4887 26.381 7.42149
LeftFoot  -9.77202 -0.141114 14.5679
LeftToes  -3.37426e-010 -1.91496e-010 5.23909e-011
65
root  68.4726 37.6 10.7158 174.306 32.4768 175.098
RightUpLeg  -10.5447 -12.971 -10.1923
RightLeg  67.078 3.31406 7.94108
RightFoot  3.08379 -1.71841 13.7046
RightToes  -2.9104e-010 0 -3.6325e-017
Spine  3.63115 2.51236 -1.43183
Spine1  5.69019 3.57477 -8.11067
HEad  -49.3106 33.5584 -40.1842
LeftShoulder1  -1.03169 6.02626 -34.6981
LeftArm  3.0979 18.9221 -36.46
LeftForeArm  18.9105 -22.198 -4.06075
LeftHand  -0.0238794 7.14591 0.878682
RightShoulder  -1.43601 -7.11681 33.2062
RightArm  16.8869 -7.50379 42.7699
RightForeArm  18.8201 11.719 6.66128
RightHand  -0.0199646 3.13097 -0.509963
LeftUpLeg  -10.9298 5.82168 -14.0299
LeftLeg  22.4602 22.8052 7.07234
LeftFoot  -10.4859 -0.0435888 14.2592
LeftToes  -3.37426e-010 -1.91496e-010 5.23909e-011
66
root  69.1706 37.7434 10.2251 174.364 26.7338 175.6
RightUpLeg  -13.1545 -10.384 -10.9925
RightLeg  66.282 2.49232 5.60989
RightFoot  3.00617 -1.18312 9.52231
RightToes  -2.9104e-010 0 -3.6325e-017
Spine  4.02468 2.12044 -2.35162
Spine1  5.4904 2.73798 -6.39398
HEad  -45.1906 33.191 -39.4796
LeftShoulder1  -1.04835 6.05689 -34.8543
LeftArm  3.84803 19.0331 -37.3691
LeftForeArm  20.569 -23.6161 -3.97301
LeftHand  -0.0345506 6.45207 0.129329
RightShoulder  -1.31862 -6.90546 32.2501
RightArm  16.8206 -8.36434 42.3447
RightForeArm  17.722 13.0429 6.09728
RightHand  0.0298546 3.14842 0.174571
LeftUpLeg  -8.30078 4.12785 -13.8155
LeftLeg  21.3908 19.1735 5.99466
LeftFoot  -10.8584 0.0063272 14.0243
LeftToes  -3.37426e-010 -1.91496e-010 5.23909e-011
67
root  69.8664 37.8863 9.71773 174.038 20.9995 175.773
RightUpLeg  -14.5757 -7.49159 -12.3055
RightLeg  62.8532 1.42943 2.53756
RightFoot  1.54514 -0.905688 8.11166
RightToes  -2.9104e-010 0 -3.6325e-017
Spine  4.004 1.94753 -2.69389
Spine1  6.33725 2.5089 -5.93896
HEad  -40.9486 31.4427 -37.8852
LeftShoulder1  -1.07914 6.12891 -34.8966
LeftArm  5.06577 18.0176 -37.4898
LeftForeArm  20.4712 -24.5641 -4.17517
LeftHand  -0.0315539 6.26017 0.428059
RightShoulder  -1.40963 -7.10987 32.5836
RightArm  18.1474 -7.80223 41.0892
RightForeArm  15.6741 13.5522 6.17369
RightHand  0.0712285 3.36386 0.703159
LeftUpLeg  -5.45679 3.22999 -13.4402
LeftLeg  20.2008 14.5599 4.42009
LeftFoot  -11.1334 0.0417908 13.7703
LeftToes  -3.37426e-010 -1.91496e-010 5.23909e-011
68
root  70.5781 38.011 9.20609 174.1 14.8012 176.785
RightUpLeg  -14.9478 -5.04924 -12.8478
RightLeg  57.1616 0.324234 0.0925313
RightFoot  0.258789 -0.781985 7.70856
RightToes  -2.9104e-010 0 -3.6325e-017
Spine  3.84125 1.71413 -2.6269
Spine1  6.96995 2.0665 -4.88803
HEad  -36.1225 29.6582 -36.1965
LeftShoulder1  -0.94777 5.81412 -34.8272
LeftArm  4.74196 17.7875 -37.6803
LeftForeArm  20.989 -25.8752 -4.43307
LeftHand  -0.0423858 7.00497 -0.303142
RightShoulder  -1.4087 -7.13709 32.2544
RightArm  16.5096 -7.67265 40.6034
RightForeArm  16.8912 13.0592 5.98227
RightHand  0.0457088 3.90297 0.302971
LeftUpLeg  -3.51598 2.56226 -12.0876
LeftLeg  20.5601 8.71038 3.35857
LeftFoot  -11.6989 0.112698 13.2379
LeftToes  -3.37426e-010 -1.91496e-010 5.23909e-011
69
root  71.3448 38.0759 8.71145 175.004 8.61774 177.509
RightUpLeg  -16.0981 -2.02107 -13.6615
RightLeg  50.8435 0.0542078 -0.298809
RightFoot  -0.0130192 -0.674648 6.78606
RightToes  -2.9104e-010 0 -3.6325e-017
Spine  3.69172 1.30666 -3.63618
Spine1  6.09857 1.31654 -2.88135
HEad  -31.181 28.8468 -33.9992
LeftShoulder1  -0.970526 5.89712 -34.3377
LeftArm  3.94744 18.2486 -37.69
LeftForeArm  21.4 -27.1996 -4.70177
LeftHand  -0.0298081 6.91387 0.550239
RightShoulder  -1.30231 -6.91052 31.7149
RightArm  16.9494 -7.51828 40.0247
RightForeArm  17.0003 12.4185 6.31345
RightHand  -0.0230272 3.37483 -0.554062
LeftUpLeg  -2.88394 1.29373 -10.7144
LeftLeg  20.8825 4.38023 2.22342
LeftFoot  -12.497 0.208628 13.1799
LeftToes  -3.37426e-010 -1.91496e-010 5.23909e-011
70
root  72.0523 38.0608 8.22514 175.481 3.20981 177.616
RightUpLeg  -17.1809 2.25397 -15.6501
RightLeg  44.9585 1.0097 0.759014
RightFoot  -0.592286 -0.560536 5.92497
RightToes  -2.9104e-010 0 -3.6325e-017
Spine  4.196 1.21351 -3.62182
Spine1  5.10112 1.40104 -3.10575
HEad  -27.7742 25.7803 -31.7766
LeftShoulder1  -0.869171 5.77014 -32.2036
LeftArm  2.05532 18.7967 -38.8441
LeftForeArm  21.7219 -28.242 -4.92062
LeftHand  -0.0174995 6.59478 1.65776
RightShoulder  -1.46686 -7.23153 32.8357
RightArm  17.1531 -6.62116 38.495
RightForeArm  16.6288 11.6413 6.62219
RightHand  -0.0626239 3.06321 -1.09738
LeftUpLeg  -2.66542 -1.83144 -9.82095
LeftLeg  22.138 1.71282 1.26784
LeftFoot  -13.3249 0.296835 12.4342
LeftToes  -3.37426e-010 -1.91496e-010 5.23909e-011
71
root  72.6882 37.9354 7.68305 175.855 -1.86876 177.593
RightUpLeg  -17.7638 7.37749 -18.2495
RightLeg  39.4203 3.66053 2.93023
RightFoot  -2.37794 -0.631028 7.88354
RightToes  -2.9104e-010 0 -3.6325e-017
Spine  4.26805 0.956906 -3.07969
Spine1  5.05894 1.45341 -4.19144
HEad  -26.6986 21.384 -30.9862
LeftShoulder1  -0.872606 5.86998 -30.6923
LeftArm  0.357203 19.4388 -39.0608
LeftForeArm  22.098 -30.0377 -5.31534
LeftHand  -0.012457 6.07961 2.85992
RightShoulder  -1.52111 -7.30569 33.4604
RightArm  15.5738 -5.70928 37.7208
RightForeArm  17.9545 10.6264 6.51871
RightHand  -0.0166012 3.63224 -0.463789
LeftUpLeg  -2.83067 -6.03305 -9.2795
LeftLeg  24.1991 0.736754 0.723248
LeftFoot  -14.5985 0.422302 11.7441
LeftToes  -3.37426e-010 -1.91496e-010 5.23909e-011
72
root  73.3877 37.8414 7.10157 176.177 -7.39278 178.046
RightUpLeg  -17.7045 12.3378 -20.3948
RightLeg  34.3394 7.24477 5.07677
RightFoot  -4.42934 -0.654007 10.2652
RightToes  -2.9104e-010 0 -3.6325e-017
Spine  4.654 0.740306 -3.18365
Spine1  4.69725 1.07068 -3.3631
HEad  -21.7666 21.7298 -28.644
LeftShoulder1  -0.912639 5.93619 -31.3223
LeftArm  -0.938464 19.2804 -37.6676
LeftForeArm  22.0972 -31.5071 -5.6659
LeftHand  0.00520065 6.54055 3.54092
RightShoulder  -1.32562 -6.91449 32.3507
RightArm  14.6738 -5.93486 37.635
RightForeArm  18.0961 10.5781 6.26815
RightHand  -0.0223837 3.02731 -0.538966
LeftUpLeg  -3.05219 -11.5169 -8.33712
LeftLeg  26.2404 0.451674 0.574704
LeftFoot  -15.866 0.514954 10.5659
LeftToes  -3.37426e-010 -1.91496e-010 5.23909e-011
73
root  74.2508 37.7628 6.52674 176.547 -13.5691 178.982
RightUpLeg  -17.3959 16.5294 -21.5398
RightLeg  30.1984 9.74567 5.86528
RightFoot  -5.33296 -0.631082 11.275
RightToes  -2.9104e-010 0 -3.6325e-017
Spine  5.56059 0.539033 -3.57243
Spine1  3.67258 0.590333 -2.01645
HEad  -19.1345 18.493 -26.9618
LeftShoulder1  -0.836701 5.83774 -29.6926
LeftArm  -2.66413 19.514 -38.4133
LeftForeArm  23.6076 -32.5937 -5.85032
LeftHand  0.0342148 7.57191 3.71649
RightShoulder  -1.43062 -7.13297 32.9031
RightArm  15.004 -5.82071 36.4912
RightForeArm  16.8774 10.9213 6.24182
RightHand  -0.0666949 2.65292 -1.16908
LeftUpLeg  -3.96592 -14.3511 -5.63697
LeftLeg  28.3468 -3.2161 -1.50186
LeftFoot  -17.2009 0.615267 9.97396
LeftToes  -3.37426e-010 -1.91496e-010 5.23909e-011
